<?xml version="1.0" encoding="utf-8"?>
<!-- Generator: Adobe Illustrator 23.0.3, SVG Export Plug-In . SVG Version: 6.00 Build 0)  -->
<svg version="1.1" id="Calque_1" xmlns="http://www.w3.org/2000/svg" xmlns:xlink="http://www.w3.org/1999/xlink" x="0px" y="0px"
	 viewBox="0 0 50 50" style="enable-background:new 0 0 50 50;" xml:space="preserve">
<style type="text/css">
	.st0{fill:#FFFFFF;}
</style>
<g>
	<path class="st0" d="M2.19,42.58c0-11.67,0-23.33,0-35c0.19,0,0.38,0,0.57,0c14.63,0,29.26,0,43.88,0c0.18,0,0.37,0,0.55,0
		c0,11.7,0,23.33,0,34.99c-0.21,0-0.4,0-0.59,0c-9.38,0-18.76,0-28.14,0C13.04,42.58,7.61,42.58,2.19,42.58z M14.95,21.59
		c-1.31,0-2.62,0-3.98,0c0-1.03,0-2,0-3c-1.32,0-2.58,0-3.92,0c0-1.01,0-1.99,0-2.97c-0.66,0-1.26,0-1.88,0c0,7.97,0,15.92,0,23.9
		c13.03,0,26.03,0,39.06,0c0-7.97,0-15.92,0-23.89c-0.63,0-1.24,0-1.91,0c0,1.01,0,1.98,0,3c-1.33,0-2.6,0-3.91,0c0,1,0,1.97,0,2.97
		c-1.35,0-2.65,0-3.95,0c0-0.98,0-1.97,0-3.01c1.33,0,2.62,0,3.96,0c0-1.03,0-2.01,0-3.03c1.33,0,2.6,0,3.91,0c0-1.01,0-1.97,0-2.97
		c0.66,0,1.27,0,1.9,0c0-0.67,0-1.3,0-1.93c-13.04,0-26.04,0-39.05,0c0,0.65,0,1.27,0,1.95c0.65,0,1.27,0,1.94,0
		c0,1.02,0,1.98,0,2.99c1.32,0,2.58,0,3.9,0c0,1.01,0,1.98,0,3c1.33,0,2.61,0,3.94,0C14.95,19.62,14.95,20.61,14.95,21.59z"/>
	<path class="st0" d="M14.94,21.58c1.28,0,2.57,0,3.9,0c0,1.01,0,1.98,0,2.97c1.32,0,2.58,0,3.94,0c0,1.04,0,2.05,0,3.05
		c-1.3,0-2.6,0-3.94,0c0-1,0-1.96,0-2.99c-1.32,0-2.6,0-3.9,0C14.94,23.56,14.94,22.57,14.94,21.58z"/>
	<path class="st0" d="M26.63,27.6c0-1,0-1.99,0-3.04c1.34,0,2.62,0,3.94,0c0-1.01,0-1.98,0-2.99c1.33,0,2.61,0,3.9,0
		c0,0.99,0,1.99,0,3.02c-1.29,0-2.56,0-3.87,0c0,1.01,0,1.97,0,3C29.25,27.6,27.94,27.6,26.63,27.6z"/>
	<path class="st0" d="M22.76,27.59c1.29,0,2.59,0,3.88,0c0,0.98,0,1.96,0,2.96c-1.29,0-2.56,0-3.88,0
		C22.76,29.57,22.76,28.58,22.76,27.59z"/>
</g>
</svg>
