<?xml version="1.0" encoding="utf-8"?>
<!-- Generator: Adobe Illustrator 23.0.3, SVG Export Plug-In . SVG Version: 6.00 Build 0)  -->
<svg version="1.1" id="Calque_1" xmlns="http://www.w3.org/2000/svg" xmlns:xlink="http://www.w3.org/1999/xlink" x="0px" y="0px"
	 viewBox="0 0 50 50" style="enable-background:new 0 0 50 50;" xml:space="preserve">
<style type="text/css">
	.st0{fill:#FFFFFF;}
</style>
<path class="st0" d="M31.64,24.79c0.55,0,1.09,0,1.68,0c0,0.55,0,1.08,0,1.64c0.56,0,1.08,0,1.65,0c0,0.56,0,1.09,0,1.65
	c0.56,0,1.08,0,1.66,0c0,0.28,0,0.52,0,0.77c0,0.75-0.01,1.5,0.01,2.25c0,0.25-0.08,0.33-0.33,0.32c-0.43-0.02-0.85,0-1.33,0
	c0,0.47-0.01,0.9,0,1.34c0.01,0.22-0.05,0.32-0.29,0.32c-3.7-0.01-7.4-0.01-11.1-0.01c-0.03,0-0.07-0.01-0.15-0.02
	c0-0.52,0-1.05,0-1.62c-0.57,0-1.1,0-1.66,0c0-0.56,0-1.08,0-1.65c-0.56,0-1.09,0-1.65,0c0-0.57,0-1.09,0-1.64
	c-0.55,0-1.07,0-1.64,0c0-0.56,0-1.09,0-1.66c-0.58,0-1.1,0-1.67,0c0-0.57,0-1.09,0-1.65c-0.56,0-1.09,0-1.65,0
	c0-0.56,0-1.08,0-1.65c-0.56,0-1.09,0-1.64,0c0-3.87,0-7.69,0-11.55c0.54,0,1.06,0,1.62,0c0-0.56,0-1.09,0-1.64c1.13,0,2.2,0,3.33,0
	c0,0.54,0,1.06,0,1.62c0.56,0,1.08,0,1.65,0c0,0.56,0,1.09,0,1.65c0.56,0,1.08,0,1.65,0c0,0.59,0,1.14,0,1.69l0.01-0.01
	c-0.54,0-1.09,0-1.68,0c0-0.57,0-1.1,0-1.66c-0.57,0-1.09,0-1.65,0c0-0.56,0-1.09,0-1.6c-1.11,0-2.18,0-3.24,0
	c0,3.84,0,7.64,0,11.49c0.54,0,1.07,0,1.64,0c0,0.57,0,1.1,0,1.65c0.56,0,1.08,0,1.64,0c0,0.56,0,1.09,0,1.64c0.56,0,1.08,0,1.64,0
	c0,0.56,0,1.08,0,1.65c0.57,0,1.1,0,1.65,0c0,0.56,0,1.08,0,1.64c0.56,0,1.09,0,1.64,0c0,0.56,0,1.08,0,1.61c3.84,0,7.66,0,11.48,0
	c0-1.09,0-2.15,0-3.26c-0.55,0-1.08,0-1.64,0c0-0.57,0-1.09,0-1.65c-0.56,0-1.09,0-1.64,0C31.65,25.85,31.65,25.32,31.64,24.79
	L31.64,24.79z"/>
<path class="st0" d="M20.14,18.21c0,1.64,0,3.29,0,4.93l0.01-0.01c-0.55,0-1.11,0-1.65,0c0-1.66,0-3.28,0-4.92
	C19.06,18.22,19.61,18.22,20.14,18.21L20.14,18.21z"/>
<path class="st0" d="M23.43,26.43c1.64,0,3.29,0,4.93,0l-0.01-0.01c0,0.55,0,1.1,0,1.65c-1.66,0-3.28,0-4.92,0
	C23.43,27.51,23.43,26.97,23.43,26.43L23.43,26.43z"/>
<path class="st0" d="M21.78,14.93c0.53,0,1.06,0,1.62,0c0,0.52,0,1.05,0,1.63c-0.54,0-1.08,0-1.62,0l0.01,0.01
	C21.79,16.03,21.79,15.48,21.78,14.93L21.78,14.93z"/>
<path class="st0" d="M21.78,16.57c0,0.53,0,1.06,0,1.64c-0.56,0-1.1,0-1.64,0l0.01,0.01c0-0.54,0-1.08,0-1.64
	C20.71,16.58,21.25,16.58,21.78,16.57L21.78,16.57z"/>
<path class="st0" d="M20.14,23.15c0.53,0,1.06,0,1.64,0c0,0.56,0,1.1,0,1.64l0.01-0.01c-0.55,0-1.1,0-1.64,0
	C20.15,24.2,20.15,23.67,20.14,23.15L20.14,23.15z"/>
<path class="st0" d="M30,24.79c0-0.53,0-1.07,0-1.62c0.56,0,1.09,0,1.64,0c0,0.54,0,1.08,0,1.62c0,0,0.01-0.01,0.01-0.01
	C31.1,24.78,30.55,24.78,30,24.79L30,24.79z"/>
<path class="st0" d="M21.78,24.79c0.53,0,1.06,0,1.64,0c0,0.56,0,1.1,0,1.64c0,0,0.01-0.01,0.01-0.01c-0.54,0-1.08,0-1.64,0
	C21.79,25.86,21.79,25.32,21.78,24.79L21.78,24.79z"/>
<path class="st0" d="M28.36,26.43c0-0.53,0-1.06,0-1.64c0.56,0,1.1,0,1.64,0c0,0-0.01-0.01-0.01-0.01c0,0.54,0,1.08,0,1.64
	C29.44,26.42,28.89,26.42,28.36,26.43L28.36,26.43z"/>
<path class="st0" d="M28.35,26.42c0.54,0,1.08,0,1.64,0c0-0.56,0-1.1,0-1.64c0.55,0,1.1,0,1.65,0c0,0.53,0,1.07,0,1.65
	c0.55,0,1.08,0,1.64,0c0,0.57,0,1.08,0,1.65c0.56,0,1.09,0,1.64,0c0,1.12,0,2.18,0,3.26c-3.83,0-7.64,0-11.48,0
	c0-0.53,0-1.05,0-1.61c-0.56,0-1.08,0-1.64,0c0-0.56,0-1.08,0-1.64c-0.56,0-1.08,0-1.65,0c0-0.57,0-1.1,0-1.65
	c-0.56,0-1.08,0-1.64,0c0-0.56,0-1.08,0-1.64c-0.56,0-1.08,0-1.64,0c0-0.56,0-1.08,0-1.65c-0.57,0-1.1,0-1.64,0
	c0-3.85,0-7.65,0-11.49c1.06,0,2.13,0,3.24,0c0,0.52,0,1.04,0,1.6c0.57,0,1.09,0,1.65,0c0,0.56,0,1.09,0,1.66c0.59,0,1.13,0,1.68,0
	c0,0.55,0,1.1,0,1.65c-0.54,0-1.08,0-1.64,0c0,0.56,0,1.1,0,1.64c-0.54,0-1.09,0-1.65,0c0,1.64,0,3.25,0,4.92c0.55,0,1.1,0,1.65,0
	c0,0.53,0,1.06,0,1.64c0.54,0,1.09,0,1.64,0c0,0.54,0,1.08,0,1.64c0.56,0,1.1,0,1.64,0c0,0.54,0,1.09,0,1.65c1.64,0,3.26,0,4.92,0
	C28.35,27.53,28.35,26.98,28.35,26.42z"/>
</svg>
