<?xml version="1.0" encoding="utf-8"?>
<!-- Generator: Adobe Illustrator 23.0.3, SVG Export Plug-In . SVG Version: 6.00 Build 0)  -->
<svg version="1.1" id="Calque_1" xmlns="http://www.w3.org/2000/svg" xmlns:xlink="http://www.w3.org/1999/xlink" x="0px" y="0px"
	 viewBox="0 0 50 50" style="enable-background:new 0 0 50 50;" xml:space="preserve">
<style type="text/css">
	.st0{fill:#FFFFFF;}
</style>
<path class="st0" d="M-165.99,53.57c-25.04,0-50.08,0-75.13,0c0-25.03,0-50.06,0-75.12c25.04,0,50.09,0,75.13,0
	C-165.99,3.48-165.99,28.53-165.99,53.57z M-199.69,42.28c2.47,0,4.95,0,7.47,0c0-2.52,0-5,0-7.47c2.5,0,5,0,7.54,0
	c0-1.19,0.01-2.28,0-3.38c-0.01-1.36-0.05-2.72-0.07-4.08c2.5,0,5,0,7.52,0c0-10.06,0-20.02,0-30.01c-2.55,0-5.03,0-7.52,0
	c0.02-1.53,0.05-3.07,0.06-4.6c0.01-0.94,0-1.88,0-2.87c-2.57,0-5.05,0-7.53,0c0-2.5,0-4.99,0-7.48c-7.51,0-14.94,0-22.38,0
	c0,2.52,0,5,0,7.48c-2.52,0-5.04,0-7.63,0c0,2.55,0,5.01,0,7.47c-2.48,0-4.95,0-7.41,0c0,10.05,0,19.98,0,30.01c2.5,0,4.96,0,7.42,0
	c0,2.48,0,4.95,0,7.47c2.63,0,5.13,0,7.64,0c-0.03,0.09-0.09,0.18-0.09,0.27c0,2.34,0,4.67,0.01,7.01c0,0.06,0.06,0.12,0.09,0.19
	c2.49,0,4.97,0,7.45,0c0,2.5,0,5,0,7.5c2.51,0,4.95,0,7.44,0C-199.69,47.24-199.69,44.76-199.69,42.28z"/>
<path class="st0" d="M37.48,12.48c1.66,0,3.32,0,5.02,0c0,6.67,0,13.32,0,20.04c-1.68,0-3.35,0-5.02,0l0.02,0.01
	c0.01-0.13,0.02-0.26,0.02-0.39c0-6.43,0-12.86,0-19.29c0-0.13-0.01-0.26-0.02-0.39L37.48,12.48z"/>
<path class="st0" d="M12.45,32.52c-1.64,0-3.28,0-4.95,0c0-6.7,0-13.33,0-20.04c1.64,0,3.3,0,4.95,0l-0.01-0.01
	c0.01,0.16,0.04,0.32,0.04,0.48c0,6.35,0,12.7,0,19.05c0,0.18-0.03,0.36-0.04,0.53L12.45,32.52z"/>
<path class="st0" d="M17.55,7.49c0-1.65,0-3.31,0-4.99c4.97,0,9.93,0,14.94,0c0,1.66,0,3.33,0,4.99l0.01-0.02
	c-4.99,0-9.98,0-14.98,0L17.55,7.49z"/>
<path class="st0" d="M12.45,12.48c0-1.64,0-3.28,0-4.99c1.73,0,3.42,0,5.1,0c0,0-0.02-0.02-0.02-0.02
	c-0.01,0.96-0.03,1.91-0.03,2.87c0,0.71,0.03,1.42,0.05,2.13c-1.7-0.01-3.41-0.01-5.11-0.02L12.45,12.48z"/>
<path class="st0" d="M17.55,37.51c-1.67,0-3.35,0-5.1,0c0-1.68,0-3.33,0-4.99c0,0-0.01,0.02-0.01,0.02c1.67,0,3.34,0,5.06,0
	c0,0.22,0,0.41,0,0.61c0.01,1.46,0.02,2.92,0.03,4.38L17.55,37.51z"/>
<path class="st0" d="M22.54,42.49c-1.66,0-3.31,0-4.98,0c-0.02-0.04-0.06-0.08-0.06-0.12c-0.01-1.56-0.01-3.12-0.01-4.68
	c0-0.06,0.04-0.12,0.06-0.18c0,0-0.02,0.01-0.02,0.01c1.65,0,3.3,0,4.99,0c0,1.71,0,3.35,0,4.99L22.54,42.49z"/>
<path class="st0" d="M32.49,7.49c1.66,0,3.31,0,5.03,0c0,0.66,0,1.29,0,1.92c-0.01,1.02-0.03,2.05-0.04,3.07
	c0,0,0.02-0.01,0.02-0.01c-1.67,0-3.33,0.01-5,0.01c0-1.67,0.01-3.34,0.01-5L32.49,7.49z"/>
<path class="st0" d="M37.48,32.52c0.02,0.91,0.04,1.82,0.05,2.73c0.01,0.73,0,1.46,0,2.26c-1.7,0-3.37,0-5.04,0l0.02,0.02
	c0-1.65,0-3.31,0-4.99c1.71,0,3.35,0,4.99,0L37.48,32.52z"/>
<path class="st0" d="M32.49,37.51c0,1.65,0,3.31,0,4.99c-1.68,0-3.33,0-4.99,0l0.01,0.01c0-1.65,0-3.31,0-4.99c1.7,0,3.35,0,4.99,0
	L32.49,37.51z"/>
<path class="st0" d="M27.51,42.5c0,1.66,0,3.31,0,5c-1.66,0-3.29,0-4.97,0c0-1.67,0-3.34,0-5.01c0,0-0.02,0.02-0.02,0.02
	c1.67,0,3.33,0,5,0L27.51,42.5z"/>
<path class="st0" d="M-121.56,13.98c-2.5,0-4.99,0-7.49,0c0-2.45,0-4.91,0-7.47c-2.53,0-5,0-7.47,0c-0.02-2.19-0.03-4.37-0.05-6.56
	c0-0.29,0-0.57,0-0.91c-2.58,0-5.08,0-7.58,0c0.02-0.27,0.06-0.53,0.06-0.8c0-9.51,0-19.02,0-28.53c0-0.24-0.04-0.48-0.06-0.72
	c2.55,0.01,5.1,0.02,7.65,0.02c0,0-0.03-0.02-0.03-0.02c-0.02,0.19-0.06,0.38-0.06,0.58c0,7.1,0,14.2,0,21.29
	c0,0.21,0.04,0.42,0.06,0.62c7.51,0,14.94,0,22.44,0c0-7.52,0-15.01,0-22.49l-0.02,0.02c2.5-0.01,4.99-0.01,7.49-0.02
	c0.01,0.19,0.03,0.39,0.03,0.58c0,9.63,0,19.26,0,28.88c0,0.19-0.02,0.39-0.03,0.58c-2.46,0-4.91,0-7.47,0c0,2.52,0,4.99,0,7.47
	c-2.46,0-4.92,0-7.47,0C-121.56,9.03-121.56,11.5-121.56,13.98z"/>
<path class="st0" d="M-130.16-47.71c-0.01,2.5-0.01,4.99-0.02,7.49c0,0,0.02-0.02,0.02-0.02c-7.48,0-14.95,0-22.43,0
	c0,0,0.03,0.02,0.03,0.02c-0.03-1.07-0.07-2.13-0.07-3.2c0-1.43,0.03-2.87,0.04-4.3C-145.12-47.72-137.64-47.72-130.16-47.71z"/>
<path class="st0" d="M17.53,12.47c4.99,0,9.98,0,14.98,0c0,5,0,9.99,0,15.02c-5.01,0-9.97,0-14.98,0c-0.01-0.14-0.04-0.27-0.04-0.41
	c0-4.74,0-9.48,0-14.22C17.49,12.72,17.52,12.59,17.53,12.47z M27.48,22.46c0-1.66,0-3.3,0-4.95c-1.66,0-3.3,0-4.93,0
	c0,1.67,0,3.31,0,4.95C24.21,22.46,25.83,22.46,27.48,22.46z"/>
<path class="st0" d="M-117.98,32.41c-2.47,0-4.9,0-7.39,0c0-2.46,0-4.91,0-7.41c2.45,0,4.89,0,7.39,0
	C-117.98,27.47-117.98,29.92-117.98,32.41z"/>
</svg>
